# Blender v2.91.0 OBJ File: ''
# www.blender.org
mtllib DungeonWall3.mtl
o Cube.007_Cube.009
v 4.000000 0.000003 -4.000000
v 2.000000 10.000003 -3.999994
v 2.000000 9.999997 4.000003
v 4.000000 -0.000003 4.000000
v -2.000000 10.000003 -3.999994
v -2.000000 9.999997 4.000003
v -4.000000 0.000003 -4.000000
v -4.000000 -0.000003 4.000000
vt 0.333333 0.424918
vt 0.333333 0.000000
vt 0.000000 0.000000
vt 0.000000 0.424918
vt 0.833333 0.333333
vt 0.666667 0.333333
vt 0.666667 0.666667
vt 0.833333 0.666667
vt 0.666667 0.000000
vt 0.333333 0.000000
vt 0.333333 0.424918
vt 0.666667 0.424918
vt 0.666667 0.000000
vt 0.666667 0.333333
vt 1.000000 0.333333
vt 1.000000 0.000000
vt 0.333333 0.841585
vt 0.250000 0.424918
vt 0.083333 0.424918
vt 0.000000 0.841585
vt 0.333333 0.841585
vt 0.666667 0.841585
vt 0.583333 0.424918
vt 0.416667 0.424918
vn 0.9806 0.1961 0.0000
vn 0.0000 1.0000 0.0000
vn -0.9806 0.1961 0.0000
vn 0.0000 -1.0000 -0.0000
vn 0.0000 -0.0000 1.0000
vn 0.0000 0.0000 -1.0000
usemtl None.001
s 1
f 1/1/1 2/2/1 3/3/1 4/4/1
f 2/5/2 5/6/2 6/7/2 3/8/2
f 7/9/3 8/10/3 6/11/3 5/12/3
f 1/13/4 4/14/4 8/15/4 7/16/4
f 4/17/5 3/18/5 6/19/5 8/20/5
f 1/21/6 7/22/6 5/23/6 2/24/6
