# Blender v2.91.0 OBJ File: ''
# www.blender.org
mtllib DungeonWall1.mtl
o Cube.002_Cube.004
v -4.000000 -0.000003 4.000000
v 4.000000 -0.000003 4.000000
v 2.000000 9.999997 4.000003
v -4.000000 9.999997 4.000003
v 4.000000 10.000000 2.000006
v 2.000000 10.000000 2.000006
v 4.000000 0.000003 -4.000000
v 4.000000 10.000003 -3.999994
v -4.000000 0.000003 -4.000000
v -4.000000 10.000003 -3.999994
vt 0.307693 0.767359
vt 0.615385 0.767359
vt 0.538462 0.384615
vt 0.307693 0.384615
vt 1.000000 0.000000
vt 0.923077 0.000000
vt 1.000000 0.390324
vt 0.000000 0.767359
vt 0.307692 0.767359
vt 0.307692 0.384615
vt 0.076923 0.384615
vt 1.000000 0.780647
vt 0.923077 0.780647
vt 0.923077 0.307692
vt 0.923077 0.000000
vt 0.615385 0.000000
vt 0.615385 0.307692
vt 0.615385 0.000000
vt 0.307693 0.000000
vt 0.615385 0.384615
vt 0.923077 0.615385
vt 0.923077 0.384616
vt 0.846154 0.384616
vt 0.615385 0.615385
vt 0.000000 0.000000
vt 0.000000 0.384615
vt 0.307692 0.384615
vt 0.307692 0.000000
vt 0.846154 0.307693
vt 0.615385 0.307693
vn 0.0000 -0.0000 1.0000
vn 0.0000 0.1961 0.9806
vn 1.0000 0.0000 0.0000
vn 0.9806 0.1961 0.0000
vn 0.0000 -1.0000 -0.0000
vn -1.0000 0.0000 0.0000
vn -0.0000 1.0000 0.0000
vn 0.0000 0.0000 -1.0000
usemtl None
s 1
f 1/1/1 2/2/1 3/3/1 4/4/1
f 5/5/2 6/6/2 2/7/2
f 2/8/3 7/9/3 8/10/3 5/11/3
f 3/12/4 2/7/4 6/13/4
f 1/14/5 9/15/5 7/16/5 2/17/5
f 9/18/6 1/19/6 4/4/6 10/20/6
f 4/21/7 3/22/7 6/23/7 10/24/7
f 8/25/8 7/26/8 9/27/8 10/28/8
f 5/29/7 8/30/7 10/24/7 6/23/7
