# Blender v2.91.0 OBJ File: ''
# www.blender.org
mtllib Stairs.mtl
o Cube_Cube.001
v 4.000000 8.000000 -1.999999
v 4.000000 8.000001 -3.999999
v -4.000000 8.000001 -3.999999
v -4.000000 8.000000 -1.999999
v -4.000000 0.000001 -4.000000
v 4.000000 0.000001 -4.000000
v 4.000000 6.000000 -1.999999
v 4.000000 6.000000 0.000001
v 4.000000 4.000000 0.000001
v 4.000000 4.000000 2.000001
v 4.000000 2.000000 2.000000
v 4.000000 1.999999 4.000000
v 4.000000 -0.000001 4.000000
v -4.000000 -0.000001 4.000000
v -4.000000 1.999999 4.000000
v -4.000000 2.000000 2.000000
v -4.000000 4.000000 2.000001
v -4.000000 4.000000 0.000001
v -4.000000 6.000000 0.000001
v -4.000000 6.000000 -1.999999
vt 0.666667 0.333333
vt 0.750000 0.333333
vt 0.750000 0.000000
vt 0.666667 0.000000
vt 0.000000 0.000000
vt 0.000000 0.333333
vt 0.333333 0.333333
vt 0.333333 0.000000
vt 0.666667 0.666667
vt 0.666667 0.583333
vt 0.583333 0.583333
vt 0.583333 0.500000
vt 0.500000 0.500000
vt 0.500000 0.416667
vt 0.416667 0.416667
vt 0.416667 0.333333
vt 0.333333 0.333333
vt 0.333333 0.666667
vt 0.333333 0.333333
vt 0.000000 0.333333
vt 0.000000 0.666667
vt 0.333333 0.666667
vt 0.666667 0.000000
vt 0.333333 0.000000
vt 0.333333 0.083333
vt 0.416667 0.083333
vt 0.416667 0.166667
vt 0.500000 0.166667
vt 0.500000 0.250000
vt 0.583333 0.250000
vt 0.583333 0.333333
vt 0.666667 0.333333
vt 0.750000 0.333333
vt 0.666667 0.333333
vt 0.666667 0.666667
vt 0.750000 0.666667
vt 0.833333 0.000000
vt 0.750000 0.000000
vt 0.750000 0.333333
vt 0.833333 0.333333
vt 0.750000 0.666667
vt 0.833333 0.666667
vt 0.833333 0.333333
vt 0.833333 0.000000
vt 0.833333 0.333333
vt 0.916667 0.333333
vt 0.916667 0.000000
vt 0.916667 0.333333
vt 0.833333 0.333333
vt 0.833333 0.666667
vt 0.916667 0.666667
vt 1.000000 0.000000
vt 0.916667 0.000000
vt 0.916667 0.333333
vt 1.000000 0.333333
vt 0.000000 0.666667
vt 0.000000 1.000000
vt 0.083333 1.000000
vt 0.083333 0.666667
vn 0.0000 1.0000 0.0000
vn 0.0000 0.0000 -1.0000
vn 1.0000 0.0000 0.0000
vn 0.0000 -1.0000 -0.0000
vn -1.0000 0.0000 0.0000
vn 0.0000 -0.0000 1.0000
usemtl Material.001
s 1
f 1/1/1 2/2/1 3/3/1 4/4/1
f 5/5/2 3/6/2 2/7/2 6/8/2
f 2/9/3 1/10/3 7/11/3 8/12/3 9/13/3 10/14/3 11/15/3 12/16/3 13/17/3 6/18/3
f 5/19/4 6/20/4 13/21/4 14/22/4
f 5/23/5 14/24/5 15/25/5 16/26/5 17/27/5 18/28/5 19/29/5 20/30/5 4/31/5 3/32/5
f 13/33/6 12/34/6 15/35/6 14/36/6
f 11/37/6 10/38/6 17/39/6 16/40/6
f 17/39/1 10/41/1 9/42/1 18/43/1
f 15/44/1 12/45/1 11/46/1 16/47/1
f 9/48/6 8/49/6 19/50/6 18/51/6
f 7/52/6 1/53/6 4/54/6 20/55/6
f 19/56/1 8/57/1 7/58/1 20/59/1
